<svg width="282" height="211" viewBox="0 0 282 211" fill="none" xmlns="http://www.w3.org/2000/svg">
<path d="M190.637 155.468C199.208 171.95 207.6 188.107 216.424 205.096C165.567 205.096 116.047 205.096 64.875 205.096C90.1051 156.777 114.861 109.367 139.617 61.957C140.169 61.9857 140.721 62.0144 141.274 62.0431C152.57 83.5708 163.867 105.099 175.32 126.924C170.22 129.124 165.697 128.037 161.313 128.155C143.13 128.647 148.648 125.134 139.875 141.422C136.65 147.409 133.621 153.501 130.554 159.447C132.422 161.672 134.579 160.935 136.439 160.948C148.261 161.031 160.089 160.802 171.907 161.07C176.225 161.169 178.693 159.625 180.401 155.797C181.723 152.835 182.703 149.571 185.311 147.094C188.252 149.235 188.821 152.536 190.637 155.468Z" fill="white"/>
<path d="M74.7096 19.0522C77.4706 13.6851 80.0988 8.66685 82.6333 3.60169C83.5962 1.67737 84.8281 0.202074 87.1234 0.203126C102.115 0.209978 117.106 0.249924 132.097 0.304429C132.379 0.305466 132.661 0.617692 134.069 1.45201C97.4988 71.2704 60.8991 141.146 24.3407 210.943C21.6744 209.949 21.2891 208.179 20.5531 206.756C14.2774 194.624 8.24368 182.362 1.72289 170.364C-0.71299 165.882 -0.478554 162.36 1.87511 157.902C26.2193 111.793 50.3498 65.5722 74.7096 19.0522Z" fill="white"/>
<path d="M182.707 69.2605C170.85 46.5352 159.15 24.1458 147.566 1.97873C149.624 -0.418073 151.759 0.109378 153.669 0.101168C166.327 0.0468014 178.988 0.204882 191.644 0.00169638C195.405 -0.0586976 197.264 1.49346 198.92 4.66571C226.052 56.6123 253.28 108.509 280.533 160.392C281.764 162.734 282.466 164.764 281.096 167.382C273.994 180.953 267.036 194.6 260.01 208.211C259.49 209.217 259.018 210.341 256.976 210.79C232.304 163.785 207.584 116.691 182.707 69.2605Z" fill="#FCFCFC"/>
</svg>
