<svg width="1024" height="560" viewBox="0 0 1024 560" fill="none" xmlns="http://www.w3.org/2000/svg">
<path d="M568.731 330.311C577.302 346.794 585.694 362.951 594.518 379.939C543.66 379.939 494.141 379.939 442.969 379.939C468.199 331.621 492.955 284.211 517.711 236.801C518.263 236.829 518.815 236.858 519.368 236.887C530.664 258.415 541.96 279.942 553.413 301.768C548.314 303.968 543.791 302.88 539.407 302.999C521.224 303.491 526.742 299.978 517.968 316.266C514.744 322.253 511.715 328.345 508.648 334.29C510.516 336.516 512.673 335.779 514.532 335.792C526.355 335.874 538.183 335.645 550 335.914C554.319 336.012 556.787 334.469 558.495 330.641C559.816 327.679 560.796 324.415 563.405 321.938C566.346 324.078 566.915 327.38 568.731 330.311Z" fill="black" fill-opacity="0.7"/>
<path d="M452.803 193.896C455.564 188.529 458.193 183.511 460.727 178.445C461.69 176.521 462.922 175.046 465.217 175.047C480.208 175.054 495.199 175.094 510.19 175.148C510.473 175.149 510.754 175.461 512.162 176.296C475.593 246.114 438.993 315.99 402.434 385.786C399.768 384.792 399.383 383.023 398.647 381.6C392.371 369.468 386.337 357.206 379.817 345.208C377.381 340.726 377.615 337.203 379.969 332.746C404.313 286.637 428.444 240.416 452.803 193.896Z" fill="black" fill-opacity="0.7"/>
<path d="M560.801 244.104C548.943 221.379 537.244 198.99 525.66 176.822C527.718 174.426 529.852 174.953 531.763 174.945C544.421 174.891 557.082 175.049 569.737 174.845C573.499 174.785 575.357 176.337 577.014 179.509C604.146 231.456 631.373 283.353 658.627 335.236C659.857 337.578 660.559 339.608 659.19 342.226C652.088 355.797 645.13 369.443 638.104 383.054C637.584 384.061 637.112 385.184 635.069 385.634C610.397 338.629 585.678 291.535 560.801 244.104Z" fill="black" fill-opacity="0.7"/>
<path d="M424.44 432.96L422.24 440H418.8L427.8 412.44H432.2L441.16 440H437.56L435.36 432.96H424.44ZM434.44 430.08L429.92 415.4L425.36 430.08H434.44ZM447.944 412.44L453.984 423.04L460.064 412.44H463.784L455.984 425.12L464.744 440H460.744L453.904 427.56L446.944 440H443.224L451.864 425.32L443.944 412.44H447.944ZM471.929 412.44L477.969 423.04L484.049 412.44H487.769L479.969 425.12L488.729 440H484.729L477.889 427.56L470.929 440H467.209L475.849 425.32L467.929 412.44H471.929ZM509.833 415.24H503.713V437.24H509.833V440H494.073V437.24H500.193V415.24H494.073V412.44H509.833V415.24ZM536.058 426.24C536.058 430.533 535.178 433.973 533.418 436.56C531.684 439.147 529.191 440.44 525.938 440.44C522.658 440.44 520.151 439.173 518.418 436.64C516.684 434.107 515.818 430.653 515.818 426.28C515.818 423.48 516.204 421 516.978 418.84C517.751 416.68 518.898 415 520.418 413.8C521.938 412.6 523.778 412 525.938 412C529.191 412 531.684 413.293 533.418 415.88C535.178 418.44 536.058 421.893 536.058 426.24ZM532.458 426.24C532.458 422.48 531.938 419.653 530.898 417.76C529.858 415.867 528.204 414.92 525.938 414.92C523.671 414.92 522.018 415.88 520.978 417.8C519.938 419.693 519.418 422.52 519.418 426.28C519.418 430.013 519.938 432.827 520.978 434.72C522.044 436.587 523.698 437.52 525.938 437.52C528.204 437.52 529.858 436.587 530.898 434.72C531.938 432.827 532.458 430 532.458 426.24Z" fill="#4A4A4A"/>
<path d="M567.346 412.44H570.786V436.92H583.386L582.946 440H567.346V412.44ZM592.331 432.96L590.131 440H586.691L595.691 412.44H600.091L609.051 440H605.451L603.251 432.96H592.331ZM602.331 430.08L597.811 415.4L593.251 430.08H602.331ZM631.475 432.16C631.475 434.933 630.475 436.933 628.475 438.16C626.502 439.387 624.062 440 621.155 440H613.715V412.44H620.515C623.315 412.44 625.635 412.987 627.475 414.08C629.342 415.147 630.275 416.92 630.275 419.4C630.275 421.053 629.782 422.387 628.795 423.4C627.808 424.387 626.582 425.053 625.115 425.4C629.355 426.12 631.475 428.373 631.475 432.16ZM626.715 419.6C626.715 418.08 626.248 416.987 625.315 416.32C624.382 415.627 623.048 415.28 621.315 415.28H617.195V424.16H621.635C625.022 424.16 626.715 422.64 626.715 419.6ZM627.795 432.28C627.795 430.333 627.262 428.973 626.195 428.2C625.155 427.427 623.715 427.04 621.875 427.04H617.195V437.12H621.755C623.435 437.12 624.862 436.773 626.035 436.08C627.208 435.387 627.795 434.12 627.795 432.28Z" fill="#8E87E6"/>
</svg>
