<svg width="239" height="235" viewBox="0 0 239 235" fill="none" xmlns="http://www.w3.org/2000/svg">
<path d="M214 0C227.807 0 239 11.1929 239 25C239 36.7386 230.909 46.5849 220 49.2725V142.727C230.909 145.414 239 155.261 239 167C239 180.807 227.807 192 214 192C200.193 192 189 180.807 189 167H173V185.727C183.909 188.414 192 198.261 192 210C192 223.807 180.807 235 167 235C153.193 235 142 223.807 142 210H50C50 223.807 38.8071 235 25 235C11.1929 235 0 223.807 0 210C0 196.193 11.1929 185 25 185V93C11.1929 93 0 81.8071 0 68C0 54.1929 11.1929 43 25 43C36.7387 43 46.5859 51.0909 49.2734 62H72V50C58.1929 50 47 38.8071 47 25C47 11.1929 58.1929 0 72 0C83.7387 0 93.5859 8.09093 96.2734 19H189.727C192.414 8.09093 202.261 0 214 0ZM25 190C13.9543 190 5 198.954 5 210C5 221.046 13.9543 230 25 230C36.0457 230 45 221.046 45 210C45 198.954 36.0457 190 25 190ZM167 190C155.954 190 147 198.954 147 210C147 221.046 155.954 230 167 230C178.046 230 187 221.046 187 210C187 198.954 178.046 190 167 190ZM97 167C97 180.807 85.8071 192 72 192C66.3713 192 61.1776 190.139 56.999 187L46.5439 197.32C47.7569 199.377 48.6872 201.62 49.2734 204H142.727C144.317 197.545 148.414 192.077 153.926 188.688L143.857 167H97ZM48.1904 77.3525C45.2165 84.718 38.8356 90.342 31 92.2725V185.727C35.5851 186.856 39.6697 189.253 42.8672 192.521L52.665 182.848C49.1253 178.534 47 173.015 47 167C47 153.193 58.1929 142 72 142V90.7188L48.1904 77.3525ZM72 147C60.9543 147 52 155.954 52 167C52 178.046 60.9543 187 72 187C83.0457 187 92 178.046 92 167C92 155.954 83.0457 147 72 147ZM214 147C202.954 147 194 155.954 194 167C194 178.046 202.954 187 214 187C225.046 187 234 178.046 234 167C234 155.954 225.046 147 214 147ZM159.379 186.184C161.782 185.415 164.342 185 167 185V167H150.473L159.379 186.184ZM91.0605 150.83C93.5208 153.727 95.335 157.191 96.2734 161H141.071L130.46 138.146C127.542 139.34 124.348 140 121 140C115.397 140 110.225 138.157 106.057 135.044L91.0605 150.83ZM140.67 130.431C139.246 132.243 137.577 133.852 135.713 135.211L147.687 161H167V144.535L140.67 130.431ZM173 161H189.727C190.036 159.745 190.44 158.528 190.931 157.355L173 147.75V161ZM187 52.999C190.139 57.1776 192 62.3713 192 68C192 79.7386 183.909 89.5849 173 92.2725V140.942L193.896 152.138C198.45 145.987 205.759 142 214 142V50C207.351 50 201.309 47.4027 196.83 43.1689L187 52.999ZM78 142.727C81.1677 143.507 84.0961 144.893 86.6592 146.752L101.712 130.906C98.1436 126.584 96 121.042 96 115C96 111.556 96.6957 108.275 97.9551 105.29L78 94.0869V142.727ZM140.704 99.6133C144.022 103.856 146 109.197 146 115C146 118.67 145.208 122.155 143.788 125.294L167 137.729V93C161.826 93 157.02 91.4283 153.031 88.7363L140.704 99.6133ZM121 95C109.954 95 101 103.954 101 115C101 126.046 109.954 135 121 135C132.046 135 141 126.046 141 115C141 103.954 132.046 95 121 95ZM78 87.207L100.936 100.083C102.732 97.6702 104.954 95.5927 107.49 93.9609L94.7646 68H78V87.207ZM112.891 91.3447C115.434 90.4732 118.162 90 121 90C126.838 90 132.207 92.0013 136.462 95.3545L148.458 84.7695C144.444 80.3345 142 74.4526 142 68H101.447L112.891 91.3447ZM25 48C13.9543 48 5 56.9543 5 68C5 79.0457 13.9543 88 25 88C36.0457 88 45 79.0457 45 68C45 56.9543 36.0457 48 25 48ZM167 48C155.954 48 147 56.9543 147 68C147 79.0457 155.954 88 167 88C178.046 88 187 79.0457 187 68C187 56.9543 178.046 48 167 48ZM50 68C50 69.14 49.9222 70.2619 49.7744 71.3613L72 83.8379V68H50ZM84.3438 46.7412C82.3797 47.8584 80.25 48.7181 78 49.2725V62H91.8232L84.3438 46.7412ZM97 25C97 32.1225 94.0208 38.5478 89.2412 43.1006L98.5059 62H142.727C145.414 51.0909 155.261 43 167 43C173.016 43 178.535 45.1258 182.849 48.666L192.979 38.5361C190.461 34.6349 189 29.9882 189 25H97ZM72 5C60.9543 5 52 13.9543 52 25C52 36.0457 60.9543 45 72 45C83.0457 45 92 36.0457 92 25C92 13.9543 83.0457 5 72 5ZM214 5C202.954 5 194 13.9543 194 25C194 36.0457 202.954 45 214 45C225.046 45 234 36.0457 234 25C234 13.9543 225.046 5 214 5Z" fill="black"/>
</svg>
